<svg viewBox="0 0 192 192"xmlns="http://www.w3.org/2000/svg" fill="#6f42c1">
  <path d=" M 47.93 12.94 C 67.08 1.75 90.18 -2.27 112.03 1.40 C 133.88 5.02 154.32 16.54 168.72 33.37 C 182.61 49.26 190.70 69.86 192.00 90.87 L 192.00 100.87 C 190.80 122.00 182.67 142.72 168.72 158.69 C 155.40 174.21 136.99 185.28 117.02 189.69 C 93.74 194.87 68.53 191.21 47.91 179.12 C 26.78 166.95 10.61 146.45 3.83 123.02 C 1.68 115.91 0.64 108.53 0.00 101.14 L 0.00 91.22 C 0.60 83.38 1.78 75.56 4.13 68.04 C 11.07 45.01 27.07 24.92 47.93 12.94 M 64.97 18.98 C 44.94 26.99 28.34 43.12 19.81 62.93 C 12.30 78.82 11.65 97.15 14.73 114.21 C 18.41 129.39 26.12 143.70 37.26 154.71 C 37.17 143.19 37.16 131.65 37.25 120.13 C 53.43 92.12 69.95 64.28 86.23 36.32 C 87.74 33.66 89.35 30.66 92.39 29.52 C 96.66 27.62 102.04 29.56 104.20 33.68 C 121.04 62.51 138.04 91.24 154.75 120.13 C 154.84 131.66 154.83 143.19 154.74 154.72 C 169.54 139.83 179.08 119.18 178.92 98.01 C 179.06 90.61 178.56 83.14 176.83 75.92 C 174.39 66.95 170.52 58.38 165.53 50.55 C 153.59 32.26 134.22 19.11 112.88 14.55 C 96.94 11.96 79.95 12.42 64.97 18.98 M 55.26 120.27 C 64.24 120.94 73.08 123.58 80.93 128.03 C 86.16 130.98 91.61 133.77 96.00 137.95 C 100.57 133.62 106.26 130.75 111.71 127.68 C 119.20 123.49 127.62 121.09 136.15 120.28 C 126.28 103.93 116.66 87.42 107.02 70.93 C 101.89 78.15 90.12 78.16 84.99 70.94 C 75.31 87.52 65.45 104.00 55.26 120.27 Z" />
</svg>