<svg style="position:absolute;width:0;height:0;overflow:hidden" xmlns="http://www.w3.org/2000/svg">
  <defs>
    <symbol id="logo" viewBox="0 0 928.71 229.65">
      <path d="M107.33,62.01c8.43,9.15,12.65,21.73,12.65,37.72v65.89c0,2.53-2.05,4.58-4.58,4.58h-27.59c-2.53,0-4.58-2.05-4.58-4.58v-60.92c0-8.07-2.09-14.34-6.27-18.81-4.18-4.47-9.8-6.7-16.86-6.7s-12.68,2.24-16.86,6.7c-4.18,4.47-6.27,10.74-6.27,18.81v60.92c0,2.53-2.05,4.58-4.58,4.58H4.58c-2.53,0-4.58-2.05-4.58-4.58V54.16c0-2.53,2.05-4.58,4.58-4.58h27.8c2.53,0,4.58,2.05,4.58,4.58v11.41c3.75-5.33,8.79-9.55,15.13-12.65,6.34-3.1,13.47-4.65,21.4-4.65,14.12,0,25.4,4.58,33.83,13.73Z" />
      <path d="M231.65,118.75h-75.61c.57,7.49,2.99,13.22,7.24,17.19,4.25,3.97,9.48,5.94,15.67,5.94,7.58,0,13.26-2.63,17.05-7.89,1.67-2.33,4.29-3.79,7.16-3.79h21.7c6.56,0,10.81,7.04,7.64,12.79-1.66,3.02-3.62,5.89-5.88,8.61-5.26,6.34-11.86,11.32-19.78,14.92-7.93,3.6-16.79,5.4-26.59,5.4-11.82,0-22.34-2.52-31.56-7.57-9.23-5.04-16.43-12.25-21.62-21.62-5.19-9.37-7.78-20.32-7.78-32.86s2.56-23.49,7.67-32.86c5.11-9.37,12.29-16.57,21.51-21.62,9.22-5.04,19.81-7.57,31.78-7.57s22.05,2.45,31.13,7.35c9.08,4.9,16.18,11.89,21.29,20.97,5.11,9.08,7.67,19.67,7.67,31.78,0,.75-.01,1.51-.03,2.27-.13,4.73-3.94,8.54-8.67,8.54Zm-29.13-20.54c0-6.34-2.16-11.38-6.49-15.13-4.32-3.75-9.73-5.62-16.21-5.62s-11.42,1.8-15.67,5.4c-4.25,3.6-6.88,8.72-7.89,15.35h46.26Z" />
      <path d="M296.56,168.36l-21.77-31.53c-.04-.06-.14-.06-.17,0l-18.14,31.25c-.76,1.31-2.17,2.12-3.69,2.12h-29.71c-3.38,0-5.41-3.74-3.58-6.57l35.49-54.98s.02-.08,0-.11l-34.64-50.04c-2.61-3.77,.09-8.92,4.67-8.92h27.69c1.86,0,3.61,.91,4.67,2.44l21.34,30.72c.04,.06,.14,.06,.17,0l17.73-30.34c1.02-1.74,2.89-2.82,4.91-2.82h26.12c4.54,0,7.25,5.06,4.73,8.83l-34.51,51.86s-.02,.08,0,.12l36.83,53.13c1.96,2.83-.06,6.69-3.5,6.69h-31.13c-1.4,0-2.71-.69-3.51-1.84Z" />
      <path d="M427.45,143.33v22.46c0,2.45-1.99,4.44-4.44,4.44h-32.41c-13.4,0-23.85-3.28-31.35-9.84-7.5-6.56-11.24-17.26-11.24-32.1v-47.89c0-.06-.05-.1-.1-.1h-40.14c-2.38,0,25.54-1.93-4.31-4.31v-22.08c29.85-2.38,1.93-4.31,4.31-4.31h40.14c.06,0,.1-.05,.1-.1V24.35c0-2.29,1.86-4.15,4.15-4.15h28.66c2.29,0,4.15,1.86,4.15,4.15v25.14c0,.06,.05,.1,.1,.1h16.04c2.52,0,4.55,2.04,4.55,4.55v21.59c0,2.52-2.04,4.55-4.55,4.55h-16.04c-.06,0-.1,.05-.1,.1v48.32c0,3.6,.86,6.2,2.59,7.78,1.73,1.59,4.61,2.38,8.65,2.38h26.79c2.45,0,4.44,1.99,4.44,4.44Z" />
      <path d="M461.61,53.04c6.48-3.46,13.91-5.19,22.26-5.19,9.94,0,18.95,2.52,27.02,7.57,8.07,5.05,14.45,12.25,19.13,21.62,4.68,9.37,7.03,20.25,7.03,32.64s-2.34,23.31-7.03,32.75c-4.69,9.44-11.06,16.72-19.13,21.83-8.07,5.12-17.08,7.68-27.02,7.68-8.5,0-15.93-1.7-22.26-5.08-6.24-3.33-11.15-7.74-14.73-13.23-.06-.09-.18-.05-.18,.05v12.05c0,2.47-2,4.47-4.47,4.47h-28.02c-2.47,0-4.47-2-4.47-4.47V14.61c0-2.42,1.96-4.38,4.38-4.38h28.2c2.42,0,4.38,1.96,4.38,4.38v51.7c0,.1,.13,.14,.18,.05,3.45-5.48,8.36-9.93,14.73-13.32Zm30.16,34.91c-5.12-5.26-11.42-7.89-18.92-7.89s-13.58,2.67-18.7,8c-5.12,5.33-7.68,12.61-7.68,21.83s2.56,16.5,7.68,21.83c5.11,5.33,11.35,8,18.7,8s13.62-2.7,18.81-8.11c5.19-5.41,7.78-12.72,7.78-21.94s-2.56-16.46-7.68-21.73Z" />
      <path d="M603.7,164.37c-9.44-5.04-16.86-12.25-22.27-21.62-5.4-9.37-8.11-20.32-8.11-32.86s2.74-23.31,8.22-32.75c5.48-9.44,12.97-16.68,22.48-21.73,9.51-5.04,20.18-7.57,31.99-7.57s22.48,2.52,31.99,7.57c9.51,5.05,17,12.29,22.48,21.73,5.48,9.44,8.22,20.36,8.22,32.75s-2.78,23.31-8.32,32.75c-5.55,9.44-13.12,16.68-22.7,21.73-9.59,5.05-20.29,7.57-32.1,7.57s-22.45-2.52-31.89-7.57Zm49.94-32.21c4.97-5.19,7.46-12.61,7.46-22.27s-2.42-17.08-7.24-22.27c-4.83-5.19-10.78-7.78-17.83-7.78s-13.19,2.56-17.94,7.67c-4.76,5.12-7.13,12.58-7.13,22.38s2.34,17.08,7.03,22.27c4.68,5.19,10.56,7.78,17.62,7.78s13.08-2.59,18.05-7.78Z" />
      <path d="M773.69,53.04c6.3,3.4,11.18,7.84,14.63,13.32,.05,.09,.18,.05,.18-.05v-12.36c0-2.42,1.96-4.38,4.38-4.38h28.21c2.42,0,4.38,1.96,4.38,4.38v116.04c0,11.1-2.2,21.15-6.59,30.16-4.4,9.01-11.1,16.18-20.11,21.51-9.01,5.33-20.21,8-33.62,8-17.87,0-32.36-4.22-43.45-12.65-9.71-7.37-15.77-17.03-18.2-28.97-.55-2.73,1.5-5.29,4.28-5.29h28.13c1.79,0,3.48,1,4.18,2.65,1.43,3.38,3.87,6.13,7.33,8.27,4.32,2.66,9.65,4,16,4,7.64,0,13.73-2.2,18.27-6.59,4.54-4.4,6.81-11.42,6.81-21.08v-16.74c0-.1-.13-.14-.18-.05-3.59,5.49-8.5,9.97-14.73,13.45-6.34,3.53-13.76,5.3-22.27,5.3-9.94,0-18.95-2.56-27.02-7.68-8.07-5.11-14.45-12.39-19.13-21.83-4.68-9.44-7.03-20.35-7.03-32.75s2.34-23.27,7.03-32.64c4.68-9.37,11.06-16.57,19.13-21.62,8.07-5.04,17.08-7.57,27.02-7.57,8.5,0,15.96,1.73,22.37,5.19Zm7.13,35.02c-4.59-4.78-10.08-7.42-16.46-7.91s-12.89,1.33-18.01,5.22c-7.07,5.37-10.6,13.47-10.6,24.31,0,9.23,2.56,16.54,7.67,21.94,5.11,5.4,11.35,8.11,18.7,8.11s13.58-2.66,18.7-8c5.11-5.33,7.67-12.61,7.67-21.83s-2.56-16.5-7.67-21.83Z" />
      <path d="M851.75,166.53c-8.22-3.6-14.7-8.54-19.46-14.81-3.69-4.86-6.12-10.17-7.29-15.93-.54-2.66,1.54-5.14,4.25-5.14h28.09c1.89,0,3.54,1.23,4.11,3.03,.9,2.82,2.63,5.19,5.22,7.13,3.46,2.59,7.71,3.89,12.75,3.89,4.61,0,8.18-.9,10.7-2.7,2.52-1.8,3.78-4.14,3.78-7.03,0-3.46-1.8-6.02-5.4-7.67-3.6-1.66-9.44-3.49-17.51-5.51-8.65-2.02-15.86-4.14-21.62-6.38-5.77-2.23-10.74-5.76-14.92-10.59-4.18-4.83-6.27-11.35-6.27-19.56,0-6.92,1.91-13.22,5.73-18.92,3.82-5.69,9.44-10.19,16.86-13.51,7.42-3.31,16.25-4.97,26.48-4.97,15.13,0,27.06,3.75,35.78,11.24,7.47,6.42,12.22,14.65,14.24,24.67,.54,2.66-1.47,5.16-4.19,5.16h-25.79c-1.82,0-3.49-1.15-4.03-2.88-.9-2.85-2.52-5.2-4.87-7.06-3.1-2.45-7.17-3.68-12.21-3.68-4.32,0-7.64,.83-9.94,2.49-2.31,1.66-3.46,3.93-3.46,6.81,0,3.46,1.84,6.05,5.51,7.78,3.68,1.73,9.4,3.46,17.19,5.19,8.93,2.31,16.21,4.58,21.84,6.81,5.62,2.24,10.56,5.84,14.81,10.81,4.25,4.97,6.45,11.64,6.59,20,0,7.06-1.98,13.37-5.95,18.92-3.97,5.55-9.66,9.91-17.08,13.08-7.42,3.17-16.03,4.76-25.83,4.76-10.52,0-19.89-1.8-28.1-5.4Z" />
      <path d="M320.95,52.58h30.51c1.93,0,1.93-3,0-3h-30.51c-1.93,0-1.93,3,0,3h0Z" />
      <path d="M334.68,54.11s.02-.06,.02-.09c.03-.15,.05-.31,.06-.47,0-.03,0-.06,0-.09-.02-.16-.03-.31-.06-.47,0-.03-.01-.06-.03-.09-.05-.14-.11-.28-.18-.42-.01-.03-.03-.05-.04-.07-.09-.12-.18-.25-.28-.36-.02-.02-.04-.04-.06-.05-.11-.09-.24-.2-.37-.28-.02-.01-.05-.02-.07-.04-.1-.04-.29-.14-.43-.18-.36-.1-.75-.1-1.11,0-.2,.05-.37,.14-.51,.27-.16,.11-.29,.25-.39,.42-.11,.17-.17,.36-.18,.56-.04,.2-.04,.4,.03,.6l.15,.36c.13,.23,.31,.4,.54,.54l.36,.15c.27,.07,.53,.07,.8,0,.03,0,.05-.01,.08-.02l-.4,.05c.05,0,.1,0,.16,0l-.4-.05c.05,0,.1,.02,.15,.04l-.36-.15s.09,.04,.13,.07l-.3-.23s.07,.06,.1,.1l-.23-.3s.05,.08,.07,.13l-.15-.36s.03,.1,.04,.15l-.05-.4c0,.05,0,.1,0,.16l.05-.4s-.01,.07-.03,.11c-.06,.2-.07,.4-.03,.6,0,.2,.07,.39,.18,.56,.09,.17,.22,.32,.39,.42,.14,.13,.31,.22,.51,.27l.4,.05c.27,0,.52-.07,.76-.2l.3-.23c.19-.19,.31-.41,.39-.66h0Z" />
      <path d="M537.06,165.83c0,2.42,1.96,4.38,4.38,4.38h28.21c2.42,0,4.38-1.96,4.38-4.38v-16.27h-36.97v16.27Z" />
      <path d="M542.58,29.02c5.09-8.34,8.01-13.26,12.96-21.62,5.11,8.63,7.89,13.29,12.74,21.61-.54,0,5.74-.29,5.74-.29l-15.96-27.27c-1.13-1.93-3.92-1.93-5.05,0l-15.96,27.27s6.06,.31,5.53,.3Z" />
      <path d="M568.93,28.71c-2.01,.13-5.05,.6-8.02,2.19-2.05,1.1-4.33,2.4-5.36,3.45-1.03-1.05-3.31-2.35-5.36-3.45-2.97-1.59-6.01-2.05-8.02-2.19h-5.1v109.53h36.97V28.71h-5.1Z" />
      <circle cx="555.54" cy="10.63" r="4.29" />
    </symbol>
    <symbol id="logo-min" viewBox="0 0 191 192">
      <path d="M 47.93 12.94 C 67.08 1.75 90.18 -2.27 112.03 1.40 C 133.88 5.02 154.32 16.54 168.72 33.37 C 182.61 49.26 190.70 69.86 192.00 90.87 L 192.00 100.87 C 190.80 122.00 182.67 142.72 168.72 158.69 C 155.40 174.21 136.99 185.28 117.02 189.69 C 93.74 194.87 68.53 191.21 47.91 179.12 C 26.78 166.95 10.61 146.45 3.83 123.02 C 1.68 115.91 0.64 108.53 0.00 101.14 L 0.00 91.22 C 0.60 83.38 1.78 75.56 4.13 68.04 C 11.07 45.01 27.07 24.92 47.93 12.94 M 64.97 18.98 C 44.94 26.99 28.34 43.12 19.81 62.93 C 12.30 78.82 11.65 97.15 14.73 114.21 C 18.41 129.39 26.12 143.70 37.26 154.71 C 37.17 143.19 37.16 131.65 37.25 120.13 C 53.43 92.12 69.95 64.28 86.23 36.32 C 87.74 33.66 89.35 30.66 92.39 29.52 C 96.66 27.62 102.04 29.56 104.20 33.68 C 121.04 62.51 138.04 91.24 154.75 120.13 C 154.84 131.66 154.83 143.19 154.74 154.72 C 169.54 139.83 179.08 119.18 178.92 98.01 C 179.06 90.61 178.56 83.14 176.83 75.92 C 174.39 66.95 170.52 58.38 165.53 50.55 C 153.59 32.26 134.22 19.11 112.88 14.55 C 96.94 11.96 79.95 12.42 64.97 18.98 M 55.26 120.27 C 64.24 120.94 73.08 123.58 80.93 128.03 C 86.16 130.98 91.61 133.77 96.00 137.95 C 100.57 133.62 106.26 130.75 111.71 127.68 C 119.20 123.49 127.62 121.09 136.15 120.28 C 126.28 103.93 116.66 87.42 107.02 70.93 C 101.89 78.15 90.12 78.16 84.99 70.94 C 75.31 87.52 65.45 104.00 55.26 120.27 Z" />
    </symbol>
  </defs>
</svg>