<svg style="position:absolute;width:0;height:0;overflow:hidden" xmlns="http://www.w3.org/2000/svg">
  <defs>
    <symbol id="clerk" viewBox="0 0 305 305">
      <path d=" M 173.76 0.00 L 189.33 0.00 C 218.73 1.41 247.70 11.34 271.53 28.66 C 273.44 30.31 275.88 32.21 275.83 34.99 C 276.00 37.37 273.96 38.96 272.55 40.57 C 260.75 52.43 248.88 64.21 237.09 76.08 C 233.99 80.21 228.27 79.28 224.64 76.43 C 211.42 68.93 196.14 65.15 180.96 65.41 C 159.41 65.75 138.07 74.37 122.50 89.31 C 109.11 101.94 99.97 118.96 96.75 137.07 C 93.02 157.36 96.90 178.90 107.43 196.64 C 109.48 199.66 109.43 204.13 106.53 206.61 C 94.53 218.62 82.51 230.61 70.53 242.63 C 68.34 245.09 64.55 246.09 61.60 244.40 C 58.75 242.62 57.19 239.48 55.30 236.82 C 41.44 216.09 32.92 191.90 30.50 167.10 C 28.58 159.82 29.26 152.23 29.33 144.79 C 31.22 133.41 32.27 121.82 35.65 110.73 C 44.74 78.26 65.06 49.12 92.34 29.31 C 115.89 11.89 144.59 1.91 173.76 0.00 Z" />
      <path d=" M 173.50 109.70 C 185.35 107.16 198.18 109.91 207.98 117.03 C 217.69 123.96 224.30 135.08 225.71 146.93 C 227.15 157.80 224.27 169.16 217.80 178.01 C 211.05 187.43 200.39 193.98 188.90 195.58 C 176.90 197.52 164.17 193.96 154.80 186.24 C 142.51 176.39 136.34 159.48 139.59 144.04 C 142.66 127.15 156.64 112.97 173.50 109.70 Z" />
      <path d=" M 126.65 229.61 C 128.61 227.63 131.01 225.57 134.01 225.81 C 136.61 226.16 138.76 227.80 141.03 228.98 C 167.17 243.46 200.83 242.84 226.42 227.42 C 229.53 225.12 234.06 225.35 236.63 228.35 C 249.64 241.61 263.19 254.36 275.81 267.99 C 276.34 271.25 274.57 274.06 272.02 275.90 C 247.89 293.67 218.32 303.73 188.42 305.00 L 176.49 305.00 C 146.35 303.79 116.51 293.64 92.27 275.62 C 88.56 272.89 88.79 267.10 92.15 264.18 C 103.60 252.61 115.19 241.17 126.65 229.61 Z" />
    </symbol>
    <symbol id="nextjs" viewBox="0 0 305 305">
      <path d=" M 152.26 0.00 L 152.72 0.00 C 176.98 0.05 201.23 5.91 222.71 17.21 C 254.41 33.59 279.95 61.54 293.44 94.57 C 301.09 112.85 304.68 132.64 305.00 152.41 L 305.00 153.64 C 304.78 183.95 295.34 214.17 277.92 239.01 C 266.72 255.39 252.08 269.20 235.68 280.29 C 195.50 220.07 155.46 159.75 115.23 99.57 C 109.87 99.64 104.50 99.59 99.14 99.62 C 99.23 139.35 99.20 179.09 99.16 218.83 C 104.56 218.86 109.96 218.84 115.36 218.85 C 115.34 189.88 115.39 160.91 115.33 131.93 C 152.34 183.25 188.93 234.88 225.95 286.20 C 205.50 297.50 182.44 303.85 159.11 305.00 L 145.33 305.00 C 116.62 303.34 88.30 293.98 64.84 277.24 C 37.97 258.42 17.41 230.68 7.40 199.42 C 2.82 185.50 0.53 170.91 0.00 156.28 L 0.00 144.08 C 1.38 122.26 7.23 100.70 17.51 81.37 C 31.88 54.36 54.41 31.69 81.57 17.55 C 103.23 6.02 127.74 0.07 152.26 0.00 M 187.28 172.00 C 187.30 173.35 187.12 174.84 188.09 175.94 C 193.88 184.47 199.38 193.19 205.27 201.64 C 205.15 167.63 205.24 133.62 205.22 99.61 C 199.27 99.57 193.32 99.68 187.37 99.54 C 187.21 123.69 187.40 147.85 187.28 172.00 Z" />
    </symbol>
    <symbol id="prisma" viewBox="0 0 305 305">
      <path d=" M 151.23 1.07 C 159.16 -1.76 168.84 1.85 172.58 9.48 C 208.55 83.93 244.47 158.40 280.42 232.86 C 284.86 242.07 278.83 253.80 269.13 256.37 C 214.08 272.27 159.01 288.13 103.95 304.02 C 97.81 305.91 90.67 304.53 85.91 300.14 C 83.73 298.25 82.28 295.73 80.70 293.35 C 62.39 265.65 44.02 237.98 25.73 210.26 C 21.48 203.90 22.83 195.30 27.48 189.53 C 65.75 129.10 104.00 68.65 142.27 8.21 C 144.35 4.92 147.53 2.33 151.23 1.07 M 162.24 38.11 C 160.22 38.35 158.63 40.09 158.38 42.07 C 141.70 120.02 124.99 197.95 108.34 275.90 C 107.36 280.02 112.21 283.73 116.04 282.19 C 162.64 268.71 209.27 255.32 255.87 241.83 C 259.75 241.05 262.17 236.26 260.23 232.75 C 229.40 168.90 198.58 105.04 167.73 41.20 C 166.93 39.00 164.57 37.59 162.24 38.11 Z" />
    </symbol>
    <symbol id="supabase" viewBox="0 0 305 305">
      <path d=" M 128.66 7.56 C 132.37 2.87 139.41 1.75 144.63 4.41 C 148.90 6.52 151.88 11.12 151.75 15.92 C 151.88 47.18 152.38 78.43 152.32 109.69 C 192.86 109.82 233.39 109.67 273.93 109.77 C 282.91 110.03 291.46 115.36 295.70 123.27 C 300.85 132.31 299.94 144.43 293.23 152.44 C 255.63 199.81 218.01 247.17 180.41 294.54 C 177.80 298.08 174.77 301.96 170.14 302.70 C 162.76 304.44 154.57 298.68 154.28 290.99 C 153.65 259.40 153.37 227.80 152.81 196.22 C 112.88 196.19 72.96 196.20 33.03 196.21 C 24.97 196.21 17.01 192.26 12.27 185.72 C 4.65 175.94 5.45 161.01 13.94 152.01 C 52.20 103.88 90.39 55.68 128.66 7.56 Z" />
    </symbol>
    <symbol id="tailwind" viewBox="0 0 305 305">
      <path d=" M 103.38 76.41 C 118.07 64.71 137.49 60.93 155.89 61.55 C 172.66 61.85 189.59 66.65 203.13 76.74 C 215.36 85.35 224.44 97.51 236.07 106.79 C 246.17 115.05 260.19 117.90 272.81 114.93 C 282.45 112.63 290.91 106.81 297.65 99.67 C 300.11 97.17 302.06 94.15 305.00 92.16 L 305.00 93.46 C 303.02 96.16 302.40 99.47 301.30 102.56 C 297.89 112.49 292.83 121.95 285.87 129.87 C 275.06 142.33 259.20 149.60 242.99 151.63 C 227.21 153.55 210.76 152.75 195.77 147.09 C 185.09 143.09 175.58 136.45 167.35 128.63 C 159.00 120.99 151.78 112.06 142.46 105.52 C 131.52 97.75 116.74 96.09 104.12 100.34 C 92.54 104.28 83.58 113.20 76.24 122.67 C 80.66 105.17 88.81 87.70 103.38 76.41 Z" />
      <path d=" M 30.21 165.25 C 43.75 155.71 60.69 152.24 77.03 152.46 C 94.31 152.26 111.92 156.72 126.07 166.87 C 139.08 175.67 148.42 188.63 160.76 198.20 C 171.67 206.82 186.95 209.08 200.10 204.92 C 212.02 201.11 221.26 192.02 228.76 182.33 C 224.90 197.39 218.52 212.27 207.42 223.44 C 196.53 234.59 181.42 240.87 166.09 242.68 C 148.89 244.69 130.85 243.29 114.98 235.98 C 104.02 231.01 94.70 223.13 86.31 214.63 C 79.20 207.71 72.58 200.06 64.04 194.84 C 57.17 190.58 48.97 188.87 40.96 188.91 C 29.97 189.13 19.49 194.05 11.43 201.37 C 7.24 204.96 3.98 209.45 0.00 213.25 L 0.00 213.00 C 2.17 207.72 3.53 202.14 5.80 196.89 C 10.95 184.46 19.03 172.95 30.21 165.25 Z" />
    </symbol>
    <symbol id="typescript" viewBox="0 0 305 305">
      <path d=" M 25.60 0.00 L 278.45 0.00 C 292.09 1.40 303.62 12.91 305.00 26.57 L 305.00 278.44 C 303.62 292.09 292.10 303.59 278.45 305.00 L 25.62 305.00 C 19.33 303.70 13.18 301.00 8.63 296.37 C 3.82 291.59 0.90 285.13 0.00 278.45 L 0.00 25.63 C 1.28 19.33 3.99 13.18 8.63 8.63 C 13.18 3.99 19.32 1.31 25.60 0.00 M 226.86 142.51 C 213.95 144.31 200.64 150.04 193.36 161.35 C 188.09 168.93 187.49 178.58 188.36 187.49 C 189.33 195.80 193.76 203.49 200.04 208.95 C 209.47 217.69 222.12 221.15 233.41 226.71 C 238.61 229.43 244.21 232.52 246.96 237.97 C 248.80 242.33 247.98 248.06 244.05 251.03 C 237.57 256.11 228.75 256.22 220.90 255.73 C 209.03 255.02 198.09 249.58 188.67 242.62 C 188.44 252.73 188.47 262.86 188.66 272.98 C 201.53 278.97 215.95 280.46 229.99 280.33 C 240.39 279.77 251.10 278.51 260.50 273.69 C 269.29 269.37 276.38 261.42 278.92 251.87 C 281.20 242.24 281.09 231.57 276.43 222.64 C 272.22 214.39 264.47 208.65 256.48 204.36 C 247.75 199.50 238.02 196.69 229.48 191.46 C 226.09 189.36 222.75 186.73 221.01 183.04 C 219.60 179.37 220.17 174.84 223.01 171.98 C 227.60 167.14 234.65 166.20 240.97 165.69 C 252.73 165.50 264.32 169.00 274.40 174.97 C 274.53 165.56 274.40 156.15 274.47 146.74 C 266.70 143.54 258.32 142.36 250.01 141.66 C 242.29 141.38 234.50 141.14 226.86 142.51 M 70.03 144.88 C 69.99 152.96 69.99 161.04 70.03 169.12 C 82.74 169.25 95.45 169.13 108.16 169.17 C 108.41 205.47 108.24 241.78 108.25 278.08 C 118.44 278.26 128.63 278.23 138.82 278.10 C 138.85 241.79 138.66 205.47 138.92 169.17 C 151.60 169.15 164.29 169.22 176.97 169.14 C 177.01 161.05 177.01 152.96 176.97 144.86 C 141.32 144.84 105.67 144.80 70.03 144.88 Z" />
    </symbol>
  </defs>
</svg>