<svg style="position:absolute;width:0;height:0;overflow:hidden" xmlns="http://www.w3.org/2000/svg">
  <defs>
    <symbol id="website" viewBox="0 0 256 256">
      <path d=" M 125.56 0.00 L 130.33 0.00 C 160.91 0.71 191.25 12.36 213.79 33.18 C 238.16 54.94 253.53 86.44 255.57 119.07 C 255.69 121.23 255.86 123.40 256.00 125.57 L 256.00 130.36 C 255.39 147.88 251.75 165.40 244.29 181.33 C 233.35 205.35 214.66 225.73 191.80 238.89 C 173.25 249.75 151.87 255.33 130.45 256.00 L 125.67 256.00 C 103.95 255.34 82.27 249.64 63.54 238.50 C 34.13 221.42 11.95 192.19 3.92 159.09 C 1.46 149.73 0.49 140.07 0.00 130.43 L 0.00 125.63 C 0.38 120.05 0.59 114.44 1.54 108.91 C 5.73 79.72 20.65 52.28 42.70 32.74 C 65.15 12.22 95.23 0.74 125.56 0.00 M 98.39 32.50 C 91.07 42.28 85.55 53.30 81.51 64.81 C 94.47 66.16 107.47 67.00 120.49 67.40 C 120.50 50.28 120.50 33.16 120.49 16.04 C 111.48 18.79 104.10 25.19 98.39 32.50 M 135.51 16.04 C 135.50 33.18 135.50 50.32 135.51 67.46 C 148.52 67.17 161.50 66.33 174.46 65.18 C 171.58 56.45 167.83 47.94 162.79 40.22 C 156.59 29.62 147.54 19.80 135.51 16.04 M 40.23 56.87 C 48.85 59.24 57.59 61.09 66.39 62.66 C 71.27 48.46 77.63 34.63 86.89 22.72 C 68.76 29.92 52.63 41.83 40.23 56.87 M 169.11 22.72 C 178.47 34.76 184.86 48.76 189.77 63.12 C 198.69 61.60 207.56 59.82 216.32 57.56 C 203.85 42.20 187.52 30.02 169.11 22.72 M 31.13 69.79 C 22.07 85.22 16.61 102.64 15.29 120.50 C 29.13 120.49 42.98 120.51 56.82 120.49 C 57.31 105.92 59.12 91.40 62.33 77.18 C 51.80 75.26 41.38 72.88 31.13 69.79 M 193.76 77.69 C 196.97 91.73 198.69 106.09 199.18 120.49 C 213.02 120.51 226.87 120.49 240.71 120.50 C 239.41 102.96 234.16 85.81 225.33 70.60 C 214.94 73.57 204.38 75.78 193.76 77.69 M 77.24 79.42 C 74.06 92.89 72.32 106.67 71.85 120.49 C 88.07 120.50 104.28 120.50 120.49 120.49 C 120.51 107.80 120.49 95.11 120.50 82.42 C 106.05 81.96 91.62 81.02 77.24 79.42 M 135.51 82.47 C 135.50 95.15 135.50 107.82 135.51 120.49 C 151.72 120.50 167.93 120.50 184.15 120.49 C 183.64 106.79 181.98 93.12 178.84 79.76 C 164.43 81.23 149.99 82.11 135.51 82.47 M 15.29 135.50 C 16.55 152.82 21.73 169.72 30.31 184.81 C 40.83 181.83 51.50 179.49 62.27 177.60 C 59.14 163.78 57.40 149.67 56.85 135.51 C 43.00 135.49 29.14 135.51 15.29 135.50 M 71.88 135.51 C 72.36 148.98 74.15 162.38 77.18 175.51 C 91.58 174.03 106.02 173.12 120.49 172.79 C 120.50 160.36 120.50 147.93 120.49 135.51 C 104.29 135.50 88.09 135.50 71.88 135.51 M 135.51 135.51 C 135.50 147.94 135.49 160.38 135.51 172.82 C 149.97 173.20 164.39 174.27 178.78 175.76 C 181.86 162.56 183.60 149.06 184.12 135.51 C 167.91 135.49 151.71 135.50 135.51 135.51 M 199.15 135.51 C 198.64 149.81 196.82 164.05 193.64 178.00 C 204.31 179.98 214.90 182.38 225.31 185.50 C 234.12 170.24 239.40 153.07 240.71 135.50 C 226.86 135.51 213.00 135.49 199.15 135.51 M 81.45 190.12 C 84.57 198.69 88.09 207.19 93.16 214.81 C 99.36 225.46 108.43 235.30 120.49 239.09 C 120.51 221.99 120.50 204.89 120.49 187.79 C 107.45 188.10 94.44 188.87 81.45 190.12 M 135.51 187.85 C 135.50 204.93 135.49 222.01 135.51 239.09 C 144.55 236.32 151.93 229.90 157.66 222.58 C 164.91 212.82 170.47 201.88 174.44 190.40 C 161.50 189.06 148.52 188.21 135.51 187.85 M 39.21 197.88 C 52.02 213.79 68.88 226.39 87.99 233.68 C 78.07 221.43 71.33 207.01 66.30 192.16 C 57.19 193.70 48.14 195.53 39.21 197.88 M 168.00 233.71 C 186.85 226.45 203.58 214.12 216.33 198.47 C 207.52 196.02 198.57 194.14 189.58 192.53 C 184.59 207.27 177.82 221.54 168.00 233.71 Z" />
    </symbol>
    <symbol id="facebook" viewBox="0 0 256 256">
      <path d=" M 157.25 0.00 L 161.75 0.00 C 172.66 0.49 183.60 0.53 194.46 1.80 C 194.49 15.36 194.46 28.92 194.47 42.47 C 185.66 42.61 176.85 42.34 168.04 42.62 C 162.24 42.89 155.76 44.16 151.91 48.90 C 148.28 53.41 147.93 59.49 147.83 65.03 C 147.82 74.60 147.78 84.16 147.85 93.72 C 162.85 93.72 177.85 93.71 192.85 93.72 C 190.94 108.90 188.96 124.07 186.99 139.24 C 173.95 139.27 160.90 139.24 147.86 139.25 C 147.76 178.17 147.84 217.08 147.82 256.00 L 100.84 256.00 C 100.83 217.08 100.86 178.17 100.83 139.25 C 87.73 139.24 74.64 139.27 61.54 139.24 C 61.52 124.07 61.52 108.90 61.55 93.73 C 74.64 93.70 87.74 93.73 100.83 93.72 C 100.93 81.16 100.68 68.60 100.97 56.05 C 101.49 40.73 106.75 24.85 118.33 14.33 C 128.76 4.57 143.25 0.46 157.25 0.00 Z" />
    </symbol>
    <symbol id="x" viewBox="0 0 256 256">
      <path d=" M 2.72 0.00 L 77.32 0.00 C 98.93 31.33 120.43 62.75 142.02 94.09 C 169.06 62.77 195.98 31.33 223.03 0.00 L 245.14 0.00 C 214.01 36.13 182.87 72.25 151.85 108.48 C 185.72 157.61 219.41 206.88 253.30 256.00 L 178.70 256.00 C 155.87 222.92 133.17 189.74 110.38 156.63 C 81.82 189.71 53.39 222.92 24.82 256.00 L 2.72 256.00 C 35.37 218.14 67.97 180.23 100.54 142.30 C 67.92 94.88 35.38 47.39 2.72 0.00 M 32.86 16.67 C 84.92 91.17 136.99 165.65 189.07 240.13 C 200.38 240.13 211.68 240.14 222.99 240.13 C 170.95 165.63 118.86 91.16 66.79 16.68 C 55.48 16.66 44.17 16.66 32.86 16.67 Z" />
    </symbol>
    <symbol id="instagram" viewBox="0 0 256 256">
      <path d=" M 62.43 0.00 L 193.50 0.00 C 209.75 0.47 225.74 7.24 237.16 18.85 C 248.76 30.25 255.49 46.23 256.00 62.45 L 256.00 193.51 C 255.50 209.76 248.75 225.77 237.13 237.18 C 225.74 248.76 209.78 255.48 193.58 256.00 L 62.49 256.00 C 46.27 255.50 30.27 248.77 18.86 237.17 C 7.26 225.78 0.52 209.80 0.00 193.58 L 0.00 62.44 C 0.51 46.24 7.23 30.28 18.81 18.88 C 30.21 7.27 46.19 0.49 62.43 0.00 M 62.34 21.50 C 50.09 21.89 38.20 27.97 30.67 37.63 C 24.17 45.52 21.28 55.84 21.35 65.97 C 21.36 107.67 21.31 149.38 21.38 191.08 C 21.42 201.36 24.76 211.74 31.61 219.51 C 39.69 229.29 52.32 234.75 64.94 234.63 C 105.97 234.70 147.00 234.62 188.03 234.67 C 194.07 234.62 200.24 234.32 205.96 232.17 C 222.74 226.61 234.68 209.72 234.59 192.07 C 234.73 149.70 234.64 107.33 234.63 64.97 C 234.71 52.32 229.29 39.64 219.46 31.56 C 211.41 24.49 200.62 21.20 190.02 21.35 C 147.46 21.45 104.89 21.14 62.34 21.50 Z" />
      <path d=" M 192.35 43.52 C 201.21 40.27 211.79 46.68 213.07 56.00 C 214.84 64.76 207.82 73.91 198.92 74.54 C 190.69 75.57 182.47 69.11 181.54 60.87 C 180.33 53.45 185.19 45.73 192.35 43.52 Z" />
      <path d=" M 121.28 64.41 C 135.65 62.87 150.52 66.34 162.64 74.24 C 177.46 83.72 188.06 99.56 190.98 116.93 C 193.68 132.12 190.67 148.26 182.55 161.39 C 175.23 173.38 163.86 182.83 150.71 187.79 C 135.02 193.79 116.96 193.26 101.67 186.29 C 87.61 179.98 76.02 168.39 69.71 154.33 C 62.74 139.04 62.20 120.96 68.21 105.27 C 76.40 83.13 97.75 66.60 121.28 64.41 M 118.42 86.52 C 106.98 89.20 96.74 96.73 91.02 107.02 C 86.66 114.50 84.84 123.39 85.69 132.00 C 86.80 146.13 95.77 159.27 108.36 165.70 C 117.36 170.55 128.15 171.67 138.06 169.36 C 149.80 166.50 160.18 158.44 165.69 147.67 C 170.57 138.62 171.68 127.74 169.32 117.79 C 166.44 106.12 158.41 95.80 147.70 90.33 C 138.83 85.53 128.22 84.37 118.42 86.52 Z" />
    </symbol>
    <symbol id="reddit" viewBox="0 0 256 256">
      <path d=" M 205.62 8.65 C 212.12 4.36 221.04 4.27 227.64 8.40 C 234.66 12.57 238.87 20.94 238.02 29.07 C 237.33 37.64 231.08 45.46 222.81 47.89 C 215.67 50.15 207.44 48.11 202.14 42.84 C 197.86 38.85 195.74 33.08 195.46 27.31 C 179.64 23.68 163.82 20.07 147.99 16.52 C 143.00 39.29 138.02 62.05 133.05 84.82 C 159.14 85.71 185.40 92.98 207.00 107.94 C 215.22 99.52 228.60 96.82 239.33 101.75 C 248.81 105.85 254.83 115.57 256.00 125.62 L 256.00 130.55 C 255.29 140.44 249.09 149.34 240.37 153.91 C 244.34 170.44 240.64 188.28 231.47 202.46 C 219.94 220.48 201.55 233.15 181.86 240.86 C 151.82 252.46 117.98 253.67 87.02 244.99 C 63.18 238.10 40.17 224.76 26.12 203.82 C 16.31 189.46 12.45 171.19 16.10 154.14 C 7.20 149.61 0.75 140.64 0.00 130.59 L 0.00 125.58 C 1.12 114.98 7.89 104.80 18.11 101.12 C 28.71 97.04 41.39 99.93 49.22 108.14 C 70.77 93.32 96.79 85.89 122.78 84.76 C 128.20 59.87 133.60 34.97 139.06 10.09 C 139.43 7.39 141.98 4.85 144.84 5.55 C 162.47 9.36 180.03 13.49 197.65 17.32 C 199.66 13.91 202.21 10.73 205.62 8.65 M 78.36 135.44 C 69.31 136.49 61.60 143.99 60.12 152.95 C 58.65 160.43 61.49 168.55 67.37 173.42 C 73.19 178.45 81.85 179.87 88.96 176.93 C 95.94 174.14 101.14 167.44 102.09 159.99 C 103.15 152.73 100.31 144.99 94.67 140.26 C 90.24 136.43 84.16 134.64 78.36 135.44 M 172.43 135.47 C 163.01 136.48 155.14 144.59 154.01 153.93 C 152.81 161.64 156.21 169.83 162.54 174.41 C 168.30 178.75 176.35 179.69 182.99 176.90 C 189.60 174.23 194.65 168.06 195.93 161.04 C 197.33 153.99 194.94 146.31 189.74 141.33 C 185.24 136.90 178.70 134.70 172.43 135.47 M 82.38 199.56 C 79.29 200.67 77.89 205.10 80.18 207.61 C 86.49 214.33 95.38 217.89 104.13 220.21 C 120.84 224.27 138.66 224.11 155.20 219.30 C 162.76 216.99 170.25 213.50 175.76 207.70 C 178.58 204.76 176.05 199.29 172.06 199.24 C 168.37 199.10 166.44 202.92 163.41 204.40 C 151.26 211.39 136.75 212.81 122.98 212.32 C 112.30 211.69 101.28 209.79 92.03 204.12 C 88.97 202.35 86.49 197.92 82.38 199.56 Z" />
    </symbol>
  </defs>
</svg>